<svg viewBox="0 0 100 100" xmlns="http://www.w3.org/2000/svg">
    <!-- 3x3 grid of nodes -->
    <circle cx="20" cy="20" r="6" fill="currentColor"/>
    <circle cx="50" cy="20" r="6" fill="currentColor"/>
    <circle cx="80" cy="20" r="6" fill="currentColor"/>
    <circle cx="20" cy="50" r="6" fill="currentColor"/>
    <circle cx="50" cy="50" r="6" fill="currentColor"/>
    <circle cx="80" cy="50" r="6" fill="currentColor"/>
    <circle cx="20" cy="80" r="6" fill="currentColor"/>
    <circle cx="50" cy="80" r="6" fill="currentColor"/>
    <circle cx="80" cy="80" r="6" fill="currentColor"/>
    <!-- Horizontal connections -->
    <line x1="26" y1="20" x2="44" y2="20" stroke="currentColor" stroke-width="2"/>
    <line x1="56" y1="20" x2="74" y2="20" stroke="currentColor" stroke-width="2"/>
    <line x1="26" y1="50" x2="44" y2="50" stroke="currentColor" stroke-width="2"/>
    <line x1="56" y1="50" x2="74" y2="50" stroke="currentColor" stroke-width="2"/>
    <line x1="26" y1="80" x2="44" y2="80" stroke="currentColor" stroke-width="2"/>
    <line x1="56" y1="80" x2="74" y2="80" stroke="currentColor" stroke-width="2"/>
    <!-- Vertical connections -->
    <line x1="20" y1="26" x2="20" y2="44" stroke="currentColor" stroke-width="2"/>
    <line x1="20" y1="56" x2="20" y2="74" stroke="currentColor" stroke-width="2"/>
    <line x1="50" y1="26" x2="50" y2="44" stroke="currentColor" stroke-width="2"/>
    <line x1="50" y1="56" x2="50" y2="74" stroke="currentColor" stroke-width="2"/>
    <line x1="80" y1="26" x2="80" y2="44" stroke="currentColor" stroke-width="2"/>
    <line x1="80" y1="56" x2="80" y2="74" stroke="currentColor" stroke-width="2"/>
</svg>

