<svg viewBox="0 0 100 100" xmlns="http://www.w3.org/2000/svg">
    <!-- Layer 1 (input): 3 neurons -->
    <circle cx="10" cy="30" r="4" fill="currentColor"/>
    <circle cx="10" cy="50" r="4" fill="currentColor"/>
    <circle cx="10" cy="70" r="4" fill="currentColor"/>
    <!-- Layer 2 (hidden 1): 4 neurons -->
    <circle cx="35" cy="22" r="4" fill="currentColor"/>
    <circle cx="35" cy="40" r="4" fill="currentColor"/>
    <circle cx="35" cy="60" r="4" fill="currentColor"/>
    <circle cx="35" cy="78" r="4" fill="currentColor"/>
    <!-- Layer 3 (hidden 2): 4 neurons -->
    <circle cx="65" cy="22" r="4" fill="currentColor"/>
    <circle cx="65" cy="40" r="4" fill="currentColor"/>
    <circle cx="65" cy="60" r="4" fill="currentColor"/>
    <circle cx="65" cy="78" r="4" fill="currentColor"/>
    <!-- Layer 4 (output): 3 neurons -->
    <circle cx="90" cy="30" r="4" fill="currentColor"/>
    <circle cx="90" cy="50" r="4" fill="currentColor"/>
    <circle cx="90" cy="70" r="4" fill="currentColor"/>
    <!-- Connections Layer 1 to Layer 2 -->
    <line x1="14" y1="30" x2="31" y2="22" stroke="currentColor" stroke-width="1" opacity="0.4"/>
    <line x1="14" y1="30" x2="31" y2="40" stroke="currentColor" stroke-width="1" opacity="0.4"/>
    <line x1="14" y1="30" x2="31" y2="60" stroke="currentColor" stroke-width="1" opacity="0.4"/>
    <line x1="14" y1="30" x2="31" y2="78" stroke="currentColor" stroke-width="1" opacity="0.4"/>
    <line x1="14" y1="50" x2="31" y2="22" stroke="currentColor" stroke-width="1" opacity="0.4"/>
    <line x1="14" y1="50" x2="31" y2="40" stroke="currentColor" stroke-width="1" opacity="0.4"/>
    <line x1="14" y1="50" x2="31" y2="60" stroke="currentColor" stroke-width="1" opacity="0.4"/>
    <line x1="14" y1="50" x2="31" y2="78" stroke="currentColor" stroke-width="1" opacity="0.4"/>
    <line x1="14" y1="70" x2="31" y2="22" stroke="currentColor" stroke-width="1" opacity="0.4"/>
    <line x1="14" y1="70" x2="31" y2="40" stroke="currentColor" stroke-width="1" opacity="0.4"/>
    <line x1="14" y1="70" x2="31" y2="60" stroke="currentColor" stroke-width="1" opacity="0.4"/>
    <line x1="14" y1="70" x2="31" y2="78" stroke="currentColor" stroke-width="1" opacity="0.4"/>
    <!-- Connections Layer 2 to Layer 3 -->
    <line x1="39" y1="22" x2="61" y2="22" stroke="currentColor" stroke-width="1" opacity="0.4"/>
    <line x1="39" y1="22" x2="61" y2="40" stroke="currentColor" stroke-width="1" opacity="0.4"/>
    <line x1="39" y1="22" x2="61" y2="60" stroke="currentColor" stroke-width="1" opacity="0.4"/>
    <line x1="39" y1="22" x2="61" y2="78" stroke="currentColor" stroke-width="1" opacity="0.4"/>
    <line x1="39" y1="40" x2="61" y2="22" stroke="currentColor" stroke-width="1" opacity="0.4"/>
    <line x1="39" y1="40" x2="61" y2="40" stroke="currentColor" stroke-width="1" opacity="0.4"/>
    <line x1="39" y1="40" x2="61" y2="60" stroke="currentColor" stroke-width="1" opacity="0.4"/>
    <line x1="39" y1="40" x2="61" y2="78" stroke="currentColor" stroke-width="1" opacity="0.4"/>
    <line x1="39" y1="60" x2="61" y2="22" stroke="currentColor" stroke-width="1" opacity="0.4"/>
    <line x1="39" y1="60" x2="61" y2="40" stroke="currentColor" stroke-width="1" opacity="0.4"/>
    <line x1="39" y1="60" x2="61" y2="60" stroke="currentColor" stroke-width="1" opacity="0.4"/>
    <line x1="39" y1="60" x2="61" y2="78" stroke="currentColor" stroke-width="1" opacity="0.4"/>
    <line x1="39" y1="78" x2="61" y2="22" stroke="currentColor" stroke-width="1" opacity="0.4"/>
    <line x1="39" y1="78" x2="61" y2="40" stroke="currentColor" stroke-width="1" opacity="0.4"/>
    <line x1="39" y1="78" x2="61" y2="60" stroke="currentColor" stroke-width="1" opacity="0.4"/>
    <line x1="39" y1="78" x2="61" y2="78" stroke="currentColor" stroke-width="1" opacity="0.4"/>
    <!-- Connections Layer 3 to Layer 4 -->
    <line x1="69" y1="22" x2="86" y2="30" stroke="currentColor" stroke-width="1" opacity="0.4"/>
    <line x1="69" y1="22" x2="86" y2="50" stroke="currentColor" stroke-width="1" opacity="0.4"/>
    <line x1="69" y1="22" x2="86" y2="70" stroke="currentColor" stroke-width="1" opacity="0.4"/>
    <line x1="69" y1="40" x2="86" y2="30" stroke="currentColor" stroke-width="1" opacity="0.4"/>
    <line x1="69" y1="40" x2="86" y2="50" stroke="currentColor" stroke-width="1" opacity="0.4"/>
    <line x1="69" y1="40" x2="86" y2="70" stroke="currentColor" stroke-width="1" opacity="0.4"/>
    <line x1="69" y1="60" x2="86" y2="30" stroke="currentColor" stroke-width="1" opacity="0.4"/>
    <line x1="69" y1="60" x2="86" y2="50" stroke="currentColor" stroke-width="1" opacity="0.4"/>
    <line x1="69" y1="60" x2="86" y2="70" stroke="currentColor" stroke-width="1" opacity="0.4"/>
    <line x1="69" y1="78" x2="86" y2="30" stroke="currentColor" stroke-width="1" opacity="0.4"/>
    <line x1="69" y1="78" x2="86" y2="50" stroke="currentColor" stroke-width="1" opacity="0.4"/>
    <line x1="69" y1="78" x2="86" y2="70" stroke="currentColor" stroke-width="1" opacity="0.4"/>
</svg>

